<?xml version="1.0" encoding="UTF-8" standalone="no"?>
<!DOCTYPE svg PUBLIC "-//W3C//DTD SVG 1.1//EN"
 "http://www.w3.org/Graphics/SVG/1.1/DTD/svg11.dtd">
<!-- Generated by graphviz version 2.38.0 (20140413.2041)
 -->
<!-- Title: %3 Pages: 1 -->
<svg width="351pt" height="244pt"
 viewBox="0.00 0.00 350.98 243.80" xmlns="http://www.w3.org/2000/svg" xmlns:xlink="http://www.w3.org/1999/xlink">
<g id="graph0" class="graph" transform="scale(1 1) rotate(0) translate(4 239.798)">
<title>%3</title>
<polygon fill="white" stroke="none" points="-4,4 -4,-239.798 346.983,-239.798 346.983,4 -4,4"/>
<!-- [] -->
<g id="node1" class="node"><title>[]</title>
<ellipse fill="none" stroke="#0000ff" cx="318.185" cy="-151.798" rx="18" ry="18"/>
<text text-anchor="middle" x="318.185" y="-148.098" font-family="Times New Roman,serif" font-size="14.00">[]</text>
</g>
<!-- []&#45;&gt;[] -->
<g id="edge2" class="edge"><title>[]&#45;&gt;[]</title>
<path fill="none" stroke="#000000" d="M314.05,-169.58C313.347,-179.113 314.726,-187.798 318.185,-187.798 320.292,-187.798 321.628,-184.573 322.19,-179.896"/>
<polygon fill="#000000" stroke="#000000" points="325.694,-179.623 322.319,-169.58 318.694,-179.535 325.694,-179.623"/>
<text text-anchor="middle" x="318.185" y="-191.598" font-family="Times New Roman,serif" font-size="14.00">a</text>
</g>
<!-- []&#45;&gt;[] -->
<g id="edge3" class="edge"><title>[]&#45;&gt;[]</title>
<path fill="none" stroke="#000000" d="M311.518,-168.662C307.472,-186.176 309.694,-205.798 318.185,-205.798 325.083,-205.798 327.843,-192.844 326.466,-178.593"/>
<polygon fill="#000000" stroke="#000000" points="329.91,-177.97 324.851,-168.662 323.001,-179.094 329.91,-177.97"/>
<text text-anchor="middle" x="318.185" y="-209.598" font-family="Times New Roman,serif" font-size="14.00">b</text>
</g>
<!-- [0] -->
<g id="node2" class="node"><title>[0]</title>
<ellipse fill="none" stroke="#00ff00" cx="20.7982" cy="-59.7982" rx="20.5982" ry="20.5982"/>
<text text-anchor="middle" x="20.7982" y="-56.0982" font-family="Times New Roman,serif" font-size="14.00">[0]</text>
</g>
<!-- [0]&#45;&gt;[0] -->
<g id="edge1" class="edge"><title>[0]&#45;&gt;[0]</title>
<path fill="none" stroke="#00ff00" stroke-width="0" d="M13.374,-89.5047C14.3295,-94.854 16.8043,-98.5963 20.7982,-98.5963 27.0325,-98.5963 29.5652,-89.4777 28.3963,-79.3618"/>
<polygon fill="#00ff00" stroke="#00ff00" stroke-width="0" points="16.8711,-89.3003 13.2,-79.3618 9.87209,-89.4204 16.8711,-89.3003"/>
</g>
<!-- [1,2] -->
<g id="node3" class="node"><title>[1,2]</title>
<ellipse fill="none" stroke="#0000ff" cx="113.544" cy="-59.7982" rx="27.8951" ry="27.8951"/>
<text text-anchor="middle" x="113.544" y="-56.0982" font-family="Times New Roman,serif" font-size="14.00">[1,2]</text>
</g>
<!-- [0]&#45;&gt;[1,2] -->
<g id="edge4" class="edge"><title>[0]&#45;&gt;[1,2]</title>
<path fill="none" stroke="#000000" d="M41.9376,-59.7982C51.7721,-59.7982 63.9256,-59.7982 75.3612,-59.7982"/>
<polygon fill="#000000" stroke="#000000" points="75.5744,-63.2983 85.5743,-59.7982 75.5743,-56.2983 75.5744,-63.2983"/>
<text text-anchor="middle" x="63.5963" y="-63.5982" font-family="Times New Roman,serif" font-size="14.00">a</text>
</g>
<!-- [0]&#45;&gt;[1,2] -->
<g id="edge5" class="edge"><title>[0]&#45;&gt;[1,2]</title>
<path fill="none" stroke="#000000" d="M38.8385,-49.119C45.1192,-45.7632 52.45,-42.4932 59.5963,-40.7982 66.3001,-39.2081 73.3299,-39.9372 79.9971,-41.8281"/>
<polygon fill="#000000" stroke="#000000" points="78.832,-45.1288 89.4255,-45.295 81.2478,-38.5588 78.832,-45.1288"/>
<text text-anchor="middle" x="63.5963" y="-44.5982" font-family="Times New Roman,serif" font-size="14.00">b</text>
</g>
<!-- [3] -->
<g id="node4" class="node"><title>[3]</title>
<ellipse fill="none" stroke="#0000ff" cx="217.439" cy="-103.798" rx="20.5982" ry="20.5982"/>
<text text-anchor="middle" x="217.439" y="-100.098" font-family="Times New Roman,serif" font-size="14.00">[3]</text>
</g>
<!-- [1,2]&#45;&gt;[3] -->
<g id="edge6" class="edge"><title>[1,2]&#45;&gt;[3]</title>
<path fill="none" stroke="#000000" d="M139.47,-70.5618C154.356,-76.9898 173.293,-85.1672 188.659,-91.8022"/>
<polygon fill="#000000" stroke="#000000" points="187.593,-95.1545 198.161,-95.9056 190.368,-88.728 187.593,-95.1545"/>
<text text-anchor="middle" x="163.491" y="-85.5982" font-family="Times New Roman,serif" font-size="14.00">a</text>
</g>
<!-- [3,4] -->
<g id="node5" class="node"><title>[3,4]</title>
<ellipse fill="none" stroke="#ff0000" cx="217.439" cy="-32.7982" rx="27.9017" ry="27.9017"/>
<ellipse fill="none" stroke="#ff0000" cx="217.439" cy="-32.7982" rx="31.8951" ry="31.8951"/>
<text text-anchor="middle" x="217.439" y="-29.0982" font-family="Times New Roman,serif" font-size="14.00">[3,4]</text>
</g>
<!-- [1,2]&#45;&gt;[3,4] -->
<g id="edge7" class="edge"><title>[1,2]&#45;&gt;[3,4]</title>
<path fill="none" stroke="#000000" d="M140.784,-52.845C151.656,-49.9642 164.509,-46.5585 176.506,-43.3796"/>
<polygon fill="#000000" stroke="#000000" points="177.549,-46.7239 186.319,-40.7792 175.756,-39.9574 177.549,-46.7239"/>
<text text-anchor="middle" x="163.491" y="-51.5982" font-family="Times New Roman,serif" font-size="14.00">b</text>
</g>
<!-- [3]&#45;&gt;[] -->
<g id="edge8" class="edge"><title>[3]&#45;&gt;[]</title>
<path fill="none" stroke="#000000" d="M236.55,-112.602C252.335,-120.275 275.361,-131.468 292.771,-139.931"/>
<polygon fill="#000000" stroke="#000000" points="291.259,-143.087 301.783,-144.311 294.319,-136.792 291.259,-143.087"/>
<text text-anchor="middle" x="271.386" y="-134.598" font-family="Times New Roman,serif" font-size="14.00">a</text>
</g>
<!-- [4] -->
<g id="node6" class="node"><title>[4]</title>
<ellipse fill="none" stroke="#ff0000" cx="318.185" cy="-24.7982" rx="20.6302" ry="20.6302"/>
<ellipse fill="none" stroke="#ff0000" cx="318.185" cy="-24.7982" rx="24.5979" ry="24.5979"/>
<text text-anchor="middle" x="318.185" y="-21.0982" font-family="Times New Roman,serif" font-size="14.00">[4]</text>
</g>
<!-- [3]&#45;&gt;[4] -->
<g id="edge9" class="edge"><title>[3]&#45;&gt;[4]</title>
<path fill="none" stroke="#000000" d="M234.304,-91.1054C249.433,-79.002 272.509,-60.5403 290.473,-46.1682"/>
<polygon fill="#000000" stroke="#000000" points="292.698,-48.8702 298.321,-39.89 288.325,-43.4042 292.698,-48.8702"/>
<text text-anchor="middle" x="271.386" y="-68.5982" font-family="Times New Roman,serif" font-size="14.00">b</text>
</g>
<!-- [3,4]&#45;&gt;[4] -->
<g id="edge10" class="edge"><title>[3,4]&#45;&gt;[4]</title>
<path fill="none" stroke="#000000" d="M249.412,-30.2889C260.127,-29.4207 272.192,-28.4433 283.141,-27.5563"/>
<polygon fill="#000000" stroke="#000000" points="283.53,-31.0363 293.215,-26.7401 282.965,-24.0591 283.53,-31.0363"/>
<text text-anchor="middle" x="271.386" y="-32.5982" font-family="Times New Roman,serif" font-size="14.00">a</text>
</g>
<!-- [3,4]&#45;&gt;[4] -->
<g id="edge11" class="edge"><title>[3,4]&#45;&gt;[4]</title>
<path fill="none" stroke="#000000" d="M245.639,-17.4532C252.526,-14.2945 260.055,-11.4347 267.386,-9.79815 273.483,-8.43708 279.922,-8.90734 286.073,-10.3185"/>
<polygon fill="#000000" stroke="#000000" points="285.452,-13.7909 296.04,-13.4243 287.534,-7.10778 285.452,-13.7909"/>
<text text-anchor="middle" x="271.386" y="-13.5982" font-family="Times New Roman,serif" font-size="14.00">b</text>
</g>
<!-- [4]&#45;&gt;[4] -->
<g id="edge12" class="edge"><title>[4]&#45;&gt;[4]</title>
<path fill="none" stroke="#000000" d="M313.898,-49.4271C313.656,-59.3052 315.085,-67.5963 318.185,-67.5963 320.122,-67.5963 321.406,-64.3576 322.038,-59.5169"/>
<polygon fill="#000000" stroke="#000000" points="325.539,-59.5679 322.471,-49.4271 318.546,-59.2681 325.539,-59.5679"/>
<text text-anchor="middle" x="318.185" y="-71.3963" font-family="Times New Roman,serif" font-size="14.00">a</text>
</g>
<!-- [4]&#45;&gt;[4] -->
<g id="edge13" class="edge"><title>[4]&#45;&gt;[4]</title>
<path fill="none" stroke="#000000" d="M310.673,-48.5124C307.864,-66.8715 310.368,-85.5963 318.185,-85.5963 324.535,-85.5963 327.379,-73.235 326.715,-58.7521"/>
<polygon fill="#000000" stroke="#000000" points="330.169,-58.1163 325.696,-48.5124 323.204,-58.81 330.169,-58.1163"/>
<text text-anchor="middle" x="318.185" y="-89.3963" font-family="Times New Roman,serif" font-size="14.00">b</text>
</g>
</g>
</svg>
